# Blender v2.77 (sub 0) OBJ File: 'star.blend'
# www.blender.org
mtllib star.mtl
o pCylinder1
v 6.295724 2.062241 0.002076
v 0.010468 0.574901 -0.918277
v 1.753878 2.107656 0.002076
v 0.037883 6.662570 0.002075
v -1.737753 2.127212 0.002076
v -6.271075 2.132573 0.002075
v -2.835321 -1.187494 0.002075
v -3.912372 -5.267436 0.002074
v -0.022024 -3.255635 0.002075
v 3.854338 -5.310906 0.002074
v 2.814258 -1.219121 0.002075
v 0.011997 0.573440 0.897524
v 6.295724 2.062241 0.002076
v 0.010468 0.574901 -0.918277
v 1.753878 2.107656 0.002076
v 0.037883 6.662570 0.002075
v -1.737753 2.127212 0.002076
v -6.271075 2.132573 0.002075
v -2.835321 -1.187494 0.002075
v -3.912372 -5.267436 0.002074
v -0.022024 -3.255635 0.002075
v 3.854338 -5.310906 0.002074
v 2.814258 -1.219121 0.002075
v 0.011997 0.573440 0.897524
v 6.295724 2.062241 0.002076
v 0.010468 0.574901 -2.120236
v 1.753878 2.107656 0.002076
v 0.037883 6.662570 0.002075
v -1.737753 2.127212 0.002076
v -6.271075 2.132573 0.002075
v -2.835321 -1.187494 0.002075
v -3.912372 -5.267436 0.002074
v -0.022024 -3.255635 0.002075
v 3.854338 -5.310906 0.002074
v 2.814258 -1.219121 0.002075
v 0.011997 0.573440 1.903622
vt 0.3750 0.3125
vt 0.5000 0.6884
vt 0.4000 0.3125
vt 0.4250 0.3125
vt 0.4500 0.3125
vt 0.4750 0.3125
vt 0.5000 0.3125
vt 0.5250 0.3125
vt 0.5500 0.3125
vt 0.5750 0.3125
vt 0.6000 0.3125
vt 0.6250 0.3125
vt 0.6264 0.0644
vt 0.5000 0.1562
vt 0.6562 0.1562
vt 0.6264 0.2481
vt 0.5483 0.3049
vt 0.4517 0.3049
vt 0.3736 0.2481
vt 0.3438 0.1562
vt 0.3736 0.0644
vt 0.4517 0.0076
vt 0.5483 0.0076
vt 0.3750 0.3125
vt 0.5000 0.6884
vt 0.4000 0.3125
vt 0.4250 0.3125
vt 0.4500 0.3125
vt 0.4750 0.3125
vt 0.5000 0.3125
vt 0.5250 0.3125
vt 0.5500 0.3125
vt 0.5750 0.3125
vt 0.6000 0.3125
vt 0.6250 0.3125
vt 0.6264 0.0644
vt 0.5000 0.1562
vt 0.6562 0.1562
vt 0.6264 0.2481
vt 0.5483 0.3049
vt 0.4517 0.3049
vt 0.3736 0.2481
vt 0.3438 0.1562
vt 0.3736 0.0644
vt 0.4517 0.0076
vt 0.5483 0.0076
vt 0.3750 0.3125
vt 0.5000 0.6884
vt 0.4000 0.3125
vt 0.4250 0.3125
vt 0.4500 0.3125
vt 0.4750 0.3125
vt 0.5000 0.3125
vt 0.5250 0.3125
vt 0.5500 0.3125
vt 0.5750 0.3125
vt 0.6000 0.3125
vt 0.6250 0.3125
vt 0.6264 0.0644
vt 0.5000 0.1562
vt 0.6562 0.1562
vt 0.6264 0.2481
vt 0.5483 0.3049
vt 0.4517 0.3049
vt 0.3736 0.2481
vt 0.3438 0.1562
vt 0.3736 0.0644
vt 0.4517 0.0076
vt 0.5483 0.0076
vn 0.0051 0.5105 -0.8599
vn 0.3651 0.1376 -0.9207
vn -0.3602 0.1410 -0.9221
vn 0.0006 0.5105 -0.8599
vn -0.1896 -0.1962 -0.9621
vn -0.3590 0.0948 -0.9285
vn 0.1204 -0.2329 -0.9650
vn -0.1224 -0.2309 -0.9653
vn 0.3634 0.0924 -0.9270
vn 0.1880 -0.1995 -0.9617
vn 0.1834 -0.1946 0.9636
vn 0.3551 0.0903 0.9305
vn -0.1193 -0.2251 0.9670
vn 0.1175 -0.2271 0.9668
vn -0.3503 0.0925 0.9321
vn -0.1849 -0.1913 0.9640
vn 0.0006 0.4998 0.8661
vn -0.3516 0.1377 0.9260
vn 0.3568 0.1344 0.9244
vn 0.0050 0.4998 0.8661
vn 0.0081 0.8075 -0.5898
vn 0.6540 0.2464 -0.7152
vn -0.6474 0.2535 -0.7187
vn 0.0010 0.8075 -0.5898
vn -0.3804 -0.3936 -0.8369
vn -0.6554 0.1730 -0.7352
vn 0.2439 -0.4716 -0.8474
vn -0.2481 -0.4679 -0.8483
vn 0.6611 0.1680 -0.7313
vn 0.3768 -0.3997 -0.8356
vn 0.3482 -0.3695 0.8615
vn 0.6217 0.1580 0.7672
vn -0.2287 -0.4314 0.8727
vn 0.2249 -0.4350 0.8719
vn -0.6155 0.1625 0.7712
vn -0.3513 -0.3636 0.8628
vn 0.0009 0.7748 0.6322
vn -0.6096 0.2387 0.7559
vn 0.6166 0.2323 0.7522
vn 0.0077 0.7748 0.6322
usemtl initialShadingGroup
s 1
f 1/1/1 2/2/1 3/3/1
f 3/3/2 2/2/2 4/4/2
f 4/4/3 2/2/3 5/5/3
f 5/5/4 2/2/4 6/6/4
f 6/6/5 2/2/5 7/7/5
f 7/7/6 2/2/6 8/8/6
f 8/8/7 2/2/7 9/9/7
f 9/9/8 2/2/8 10/10/8
f 10/10/9 2/2/9 11/11/9
f 11/11/10 2/2/10 1/12/10
f 1/13/11 12/14/11 11/15/11
f 11/15/12 12/14/12 10/16/12
f 10/16/13 12/14/13 9/17/13
f 9/17/14 12/14/14 8/18/14
f 8/18/15 12/14/15 7/19/15
f 7/19/16 12/14/16 6/20/16
f 6/20/17 12/14/17 5/21/17
f 5/21/18 12/14/18 4/22/18
f 4/22/19 12/14/19 3/23/19
f 3/23/20 12/14/20 1/13/20
f 13/24/1 14/25/1 15/26/1
f 15/26/2 14/25/2 16/27/2
f 16/27/3 14/25/3 17/28/3
f 17/28/4 14/25/4 18/29/4
f 18/29/5 14/25/5 19/30/5
f 19/30/6 14/25/6 20/31/6
f 20/31/7 14/25/7 21/32/7
f 21/32/8 14/25/8 22/33/8
f 22/33/9 14/25/9 23/34/9
f 23/34/10 14/25/10 13/35/10
f 13/36/11 24/37/11 23/38/11
f 23/38/12 24/37/12 22/39/12
f 22/39/13 24/37/13 21/40/13
f 21/40/14 24/37/14 20/41/14
f 20/41/15 24/37/15 19/42/15
f 19/42/16 24/37/16 18/43/16
f 18/43/17 24/37/17 17/44/17
f 17/44/18 24/37/18 16/45/18
f 16/45/19 24/37/19 15/46/19
f 15/46/20 24/37/20 13/36/20
f 25/47/21 26/48/21 27/49/21
f 27/49/22 26/48/22 28/50/22
f 28/50/23 26/48/23 29/51/23
f 29/51/24 26/48/24 30/52/24
f 30/52/25 26/48/25 31/53/25
f 31/53/26 26/48/26 32/54/26
f 32/54/27 26/48/27 33/55/27
f 33/55/28 26/48/28 34/56/28
f 34/56/29 26/48/29 35/57/29
f 35/57/30 26/48/30 25/58/30
f 25/59/31 36/60/31 35/61/31
f 35/61/32 36/60/32 34/62/32
f 34/62/33 36/60/33 33/63/33
f 33/63/34 36/60/34 32/64/34
f 32/64/35 36/60/35 31/65/35
f 31/65/36 36/60/36 30/66/36
f 30/66/37 36/60/37 29/67/37
f 29/67/38 36/60/38 28/68/38
f 28/68/39 36/60/39 27/69/39
f 27/69/40 36/60/40 25/59/40
